<svg id="clipboardSVG" xmlns="http://www.w3.org/2000/svg" xmlns:xlink="http://www.w3.org/1999/xlink" width="727" height="887" viewBox="0 0 727 887">
  <defs>
    <clipPath id="clip-path">
      <rect width="30" height="475" fill="none"/>
    </clipPath>
    <clipPath id="clip-path-2">
      <rect width="311" height="461" fill="none"/>
    </clipPath>
  </defs>
  <g id="Rectangle_1100" data-name="Rectangle 1100" stroke="#707070" stroke-width="1">
    <rect width="727" height="887" rx="63" stroke="none"/>
    <rect x="0.5" y="0.5" width="726" height="886" rx="62.5" fill="none"/>
  </g>
  <g id="Rectangle_1101" data-name="Rectangle 1101" transform="translate(23 33)" fill="#fff" stroke="#707070" stroke-width="1">
    <rect width="680" height="827" rx="21" stroke="none"/>
    <rect x="0.5" y="0.5" width="679" height="826" rx="20.5" fill="none"/>
  </g>
  <g id="Repeat_Grid_4" data-name="Repeat Grid 4" transform="translate(152 264)" clip-path="url(#clip-path)">
    <g transform="translate(-1705 -4306)">
      <g id="Rectangle_1102" data-name="Rectangle 1102" transform="translate(1705 4306)" stroke="#707070" stroke-width="1">
        <rect width="30" height="30" stroke="none"/>
        <rect x="0.5" y="0.5" width="29" height="29" fill="none"/>
      </g>
    </g>
    <g transform="translate(-1705 -4245)">
      <g id="Rectangle_1102-2" data-name="Rectangle 1102" transform="translate(1705 4306)" stroke="#707070" stroke-width="1">
        <rect width="30" height="30" stroke="none"/>
        <rect x="0.5" y="0.5" width="29" height="29" fill="none"/>
      </g>
    </g>
    <g transform="translate(-1705 -4184)">
      <g id="Rectangle_1102-3" data-name="Rectangle 1102" transform="translate(1705 4306)" stroke="#707070" stroke-width="1">
        <rect width="30" height="30" stroke="none"/>
        <rect x="0.5" y="0.5" width="29" height="29" fill="none"/>
      </g>
    </g>
    <g transform="translate(-1705 -4123)">
      <g id="Rectangle_1102-4" data-name="Rectangle 1102" transform="translate(1705 4306)" stroke="#707070" stroke-width="1">
        <rect width="30" height="30" stroke="none"/>
        <rect x="0.5" y="0.5" width="29" height="29" fill="none"/>
      </g>
    </g>
    <g transform="translate(-1705 -4062)">
      <g id="Rectangle_1102-5" data-name="Rectangle 1102" transform="translate(1705 4306)" stroke="#707070" stroke-width="1">
        <rect width="30" height="30" stroke="none"/>
        <rect x="0.5" y="0.5" width="29" height="29" fill="none"/>
      </g>
    </g>
    <g transform="translate(-1705 -4001)">
      <g id="Rectangle_1102-6" data-name="Rectangle 1102" transform="translate(1705 4306)" stroke="#707070" stroke-width="1">
        <rect width="30" height="30" stroke="none"/>
        <rect x="0.5" y="0.5" width="29" height="29" fill="none"/>
      </g>
    </g>
    <g transform="translate(-1705 -3940)">
      <g id="Rectangle_1102-7" data-name="Rectangle 1102" transform="translate(1705 4306)" stroke="#707070" stroke-width="1">
        <rect width="30" height="30" stroke="none"/>
        <rect x="0.5" y="0.5" width="29" height="29" fill="none"/>
      </g>
    </g>
    <g transform="translate(-1705 -3879)">
      <g id="Rectangle_1102-8" data-name="Rectangle 1102" transform="translate(1705 4306)" stroke="#707070" stroke-width="1">
        <rect width="30" height="30" stroke="none"/>
        <rect x="0.5" y="0.5" width="29" height="29" fill="none"/>
      </g>
    </g>
  </g>
  <g id="Repeat_Grid_5" data-name="Repeat Grid 5" transform="translate(227 264)" clip-path="url(#clip-path-2)">
    <g transform="translate(-1789 -4285)">
      <g id="Rectangle_1103" data-name="Rectangle 1103" transform="translate(1789 4285)" stroke="#707070" stroke-width="1">
        <rect width="311" height="33" stroke="none"/>
        <rect x="0.5" y="0.5" width="310" height="32" fill="none"/>
      </g>
    </g>
    <g transform="translate(-1789 -4232)">
      <g id="Rectangle_1103-2" data-name="Rectangle 1103" transform="translate(1789 4285)" stroke="#707070" stroke-width="1">
        <rect width="311" height="33" stroke="none"/>
        <rect x="0.5" y="0.5" width="310" height="32" fill="none"/>
      </g>
    </g>
    <g transform="translate(-1789 -4179)">
      <g id="Rectangle_1103-3" data-name="Rectangle 1103" transform="translate(1789 4285)" stroke="#707070" stroke-width="1">
        <rect width="311" height="33" stroke="none"/>
        <rect x="0.5" y="0.5" width="310" height="32" fill="none"/>
      </g>
    </g>
    <g transform="translate(-1789 -4126)">
      <g id="Rectangle_1103-4" data-name="Rectangle 1103" transform="translate(1789 4285)" stroke="#707070" stroke-width="1">
        <rect width="311" height="33" stroke="none"/>
        <rect x="0.5" y="0.5" width="310" height="32" fill="none"/>
      </g>
    </g>
    <g transform="translate(-1789 -4073)">
      <g id="Rectangle_1103-5" data-name="Rectangle 1103" transform="translate(1789 4285)" stroke="#707070" stroke-width="1">
        <rect width="311" height="33" stroke="none"/>
        <rect x="0.5" y="0.5" width="310" height="32" fill="none"/>
      </g>
    </g>
    <g transform="translate(-1789 -4020)">
      <g id="Rectangle_1103-6" data-name="Rectangle 1103" transform="translate(1789 4285)" stroke="#707070" stroke-width="1">
        <rect width="311" height="33" stroke="none"/>
        <rect x="0.5" y="0.5" width="310" height="32" fill="none"/>
      </g>
    </g>
    <g transform="translate(-1789 -3967)">
      <g id="Rectangle_1103-7" data-name="Rectangle 1103" transform="translate(1789 4285)" stroke="#707070" stroke-width="1">
        <rect width="311" height="33" stroke="none"/>
        <rect x="0.5" y="0.5" width="310" height="32" fill="none"/>
      </g>
    </g>
    <g transform="translate(-1789 -3914)">
      <g id="Rectangle_1103-8" data-name="Rectangle 1103" transform="translate(1789 4285)" stroke="#707070" stroke-width="1">
        <rect width="311" height="33" stroke="none"/>
        <rect x="0.5" y="0.5" width="310" height="32" fill="none"/>
      </g>
    </g>
    <g transform="translate(-1789 -3861)">
      <g id="Rectangle_1103-9" data-name="Rectangle 1103" transform="translate(1789 4285)" stroke="#707070" stroke-width="1">
        <rect width="311" height="33" stroke="none"/>
        <rect x="0.5" y="0.5" width="310" height="32" fill="none"/>
      </g>
    </g>
  </g>
  <g id="Rectangle_1104" data-name="Rectangle 1104" transform="translate(206 96)" stroke="#707070" stroke-width="1">
    <rect width="311" height="54" stroke="none"/>
    <rect x="0.5" y="0.5" width="310" height="53" fill="none"/>
  </g>
</svg>
