<svg xmlns="http://www.w3.org/2000/svg" width="1940.404" height="676.736" viewBox="0 0 1940.404 676.736"><path d="M0,0H1920.155V565H0Z" fill="#3474ab"/><path d="M1110,1065.79c1023.474,162.968,1925.145,0,1925.145,0Z" transform="translate(-1109.846 -501.111)" fill="rgba(52,116,171,0.85)"/><path d="M857,778.33c1.9,0,611.08,220.769,746.452,225.6S2101.43,873.406,2315.77,873.406s449.412,38.082,460.693,49.362-4.616,115.006-4.616,115.006L857,1003.933S855.1,778.33,857,778.33Z" transform="translate(-856 -379.322)" fill="rgba(255,255,255,0.23)"/><path d="M1231.147,988.279c242.664-119.024,801.958-66.925,801.958-66.925s139.063,13.676,254.417,13.136c1.8-.008,177.421,12.189,328.455-20.517,230.162-49.841,502.5-157.3,536.339-194.288,56.033-61.235-29.182,334.319-29.182,329.326s-1891.987-23.3-1891.987-23.3Z" transform="translate(-1230.993 -372.322)" fill="rgba(255,255,255,0.18)"/></svg>